<svg xmlns="http://www.w3.org/2000/svg" width="300" height="72" viewBox="0 0 300 72"><g transform="translate(11938 8059)"><rect width="300" height="72" transform="translate(-11938 -8059)" fill="#fff" opacity="0"/><g transform="translate(-12042.725 -8157.196)"><g transform="translate(105.724 99.196)"><path d="M154.168,123.188C153,108.34,170.2,107.5,173.682,118.115c5.8,45.792-47.461,56.817-62.136,35.9C120.355,164.749,166.146,158.171,154.168,123.188Z" transform="translate(-102.837 -93.353)" fill="#fff" fill-rule="evenodd"/><path d="M147.98,119.326c14.724,2.142,16.687-14.98,6.33-19.145-45.28-8.792-59.76,43.672-39.854,59.694C104.321,150.372,113.874,105.081,147.98,119.326Z" transform="translate(-105.724 -99.196)" fill="#fff" fill-rule="evenodd"/><path d="M197.648,135.174A8.527,8.527,0,0,1,194.63,142a10.863,10.863,0,0,1-7.209,2.409H164.639V139.2H187.42a6.91,6.91,0,0,0,3.713-.962,3.643,3.643,0,0,0,1.794-3.191,3.424,3.424,0,0,0-1.831-3.106,7.065,7.065,0,0,0-3.676-.919H173.338a9.933,9.933,0,0,1-6.514-2.147,8.056,8.056,0,0,1,0-12.2,9.958,9.958,0,0,1,6.514-2.148h22.515v5.2H173.338a3.978,3.978,0,0,0-2.539.836,2.7,2.7,0,0,0-1.044,2.225,2.633,2.633,0,0,0,1.044,2.234,4.134,4.134,0,0,0,2.539.784H187.42a10.643,10.643,0,0,1,7.209,2.5,8.656,8.656,0,0,1,3.019,6.873Zm34.932,9.232h-5.2V131.977H209.842v-5.2h17.541V114.523h5.2v29.883Zm-25.091,0H202.28V114.523h5.209v29.883Zm68.681,0-6.687-.049-5.024-8.351h-14.17l3.149-5.166h7.911l-5.2-8.623-13.464,22.14H235.99l16.224-26.99a7.025,7.025,0,0,1,1.7-1.924,4.073,4.073,0,0,1,2.361-1.007,3.846,3.846,0,0,1,2.364.962,7.014,7.014,0,0,1,1.708,1.969l15.822,27.039Zm32.312-2.582c0,1.924-.658,2.892-1.969,2.892a4.938,4.938,0,0,1-3.234-1.8l-19.15-19.248v20.738h-5.16v-27.3a2.989,2.989,0,0,1,.565-1.816,1.91,1.91,0,0,1,1.622-.767,4.355,4.355,0,0,1,2.973,1.533l19.15,19.2V114.523h5.2v27.3Zm33.966-22.1H330.694v24.678h-5.161V119.727h-11.8v-5.2h28.719v5.2ZM374.8,144.406l-15.828-27.039a6.711,6.711,0,0,0-1.707-1.969,3.8,3.8,0,0,0-2.355-.962,4.04,4.04,0,0,0-2.359,1.007,7.026,7.026,0,0,0-1.707,1.924l-16.224,26.99h6.693l13.463-22.14,5.208,8.623h-7.915l-3.149,5.166h14.169l5.025,8.351Z" transform="translate(-76.804 -91.637)" fill="#fff"/></g><g transform="translate(192.951 157.738)"><path d="M165.4,143.314h6.291v-4.986h1.37v12.29h-1.37v-6.03H165.4v6.03H164.03v-12.29H165.4Z" transform="translate(-164.03 -138.328)" fill="#fff"/><path d="M186.333,140.132a6.2,6.2,0,0,1,8.744,0,6.106,6.106,0,0,1,0,8.7,6.236,6.236,0,0,1-8.744,0,6.106,6.106,0,0,1,0-8.7Zm7.823.866a4.853,4.853,0,0,0-6.9,0,4.947,4.947,0,0,0,.007,6.942,4.815,4.815,0,0,0,6.885,0,4.945,4.945,0,0,0,.009-6.942Z" transform="translate(-153.87 -138.328)" fill="#fff"/><path d="M208.247,138.328v11.018h3.39v1.272h-4.759v-12.29Z" transform="translate(-142.777 -138.328)" fill="#fff"/><path d="M223.351,150.618v-12.29h2.314a10.1,10.1,0,0,1,2.658.31,5.526,5.526,0,0,1,2.135,1.173,6.312,6.312,0,0,1,.033,9.259,5.542,5.542,0,0,1-2.144,1.231,10.081,10.081,0,0,1-2.715.317Zm1.37-1.272h.993a7.853,7.853,0,0,0,2.177-.269,4.2,4.2,0,0,0,1.7-1,4.725,4.725,0,0,0,1.532-3.6,4.667,4.667,0,0,0-1.6-3.683,4.124,4.124,0,0,0-1.688-.945,8.2,8.2,0,0,0-2.127-.245h-.993Z" transform="translate(-134.606 -138.328)" fill="#fff"/><path d="M244.517,138.328v12.29h-1.37v-12.29Z" transform="translate(-124.787 -138.328)" fill="#fff"/><path d="M285.182,144.444h4.949a8.657,8.657,0,0,1-.22,2.334,4.623,4.623,0,0,1-1.01,1.861,5.487,5.487,0,0,1-1.978,1.466,6.127,6.127,0,1,1-2.341-11.777,6.076,6.076,0,0,1,5.03,2.569l-.962.9a4.824,4.824,0,0,0-4.083-2.238,4.6,4.6,0,0,0-3.436,1.466,4.857,4.857,0,0,0-1.418,3.5,4.645,4.645,0,0,0,1.385,3.357,5.479,5.479,0,0,0,1.577,1.1,4.239,4.239,0,0,0,1.8.417,4.535,4.535,0,0,0,2.932-1.064,3.3,3.3,0,0,0,1.307-2.657h-3.531Z" transform="translate(-107.307 -138.328)" fill="#fff"/><path d="M307.03,140.173l-1.091.678a2.364,2.364,0,0,0-2.12-1.293,2.126,2.126,0,0,0-1.435.521,1.671,1.671,0,0,0-.6,1.322,1.355,1.355,0,0,0,.163.663,1.518,1.518,0,0,0,.5.528q.343.229.58.356c.156.082.382.189.676.314l.815.347a11.509,11.509,0,0,1,1.156.56,5.684,5.684,0,0,1,.9.646,2.427,2.427,0,0,1,.669.922,3.18,3.18,0,0,1,.221,1.215,3.453,3.453,0,0,1-1.127,2.609,4.09,4.09,0,0,1-5.239.22,3.776,3.776,0,0,1-1.328-2.231l1.336-.364a2.571,2.571,0,0,0,.815,1.569,2.325,2.325,0,0,0,1.646.639,2.58,2.58,0,0,0,1.768-.67,2.111,2.111,0,0,0,.758-1.647,1.943,1.943,0,0,0-.138-.733,2.036,2.036,0,0,0-.311-.543,2.309,2.309,0,0,0-.546-.441,6.763,6.763,0,0,0-.585-.34q-.213-.1-.685-.307l-.75-.316a6.723,6.723,0,0,1-1.99-1.23,2.4,2.4,0,0,1-.684-1.813,2.705,2.705,0,0,1,1.01-2.183,3.883,3.883,0,0,1,4.288-.364A3.5,3.5,0,0,1,307.03,140.173Z" transform="translate(-96.697 -138.328)" fill="#fff"/></g><path d="M269.126,138.328h-1.37v9.519l-9.086-9.519h-.5v12.29h1.37v-9.469l9.061,9.476h.523Z" transform="translate(75.616 19.41)" fill="#fff"/></g></g></svg>